<?xml version="1.0" standalone="no"?>
<!DOCTYPE svg PUBLIC "-//W3C//DTD SVG 20010904//EN"
 "http://www.w3.org/TR/2001/REC-SVG-20010904/DTD/svg10.dtd">
<svg version="1.0" xmlns="http://www.w3.org/2000/svg"
 width="1024.000000pt" height="1024.000000pt" viewBox="0 0 1024.000000 1024.000000"
 preserveAspectRatio="xMidYMid meet">

<defs>
  <linearGradient id="myGradient" x1="0%" y1="0%" x2="100%" y2="0%">
    <stop offset="0%" style="stop-color:rgba(64, 64, 72, 1);stop-opacity:1" />
    <stop offset="50%" style="stop-color:rgba(86, 156, 193, 1);stop-opacity:1" />
    <stop offset="100%" style="stop-color:rgba(252, 196, 4, 1);stop-opacity:1" />
  </linearGradient>
</defs>

<g transform="translate(0.000000,1024.000000) scale(0.100000,-0.100000)"
fill="#569CC1" stroke="none">
<path d="M4865 8971 c-162 -44 -268 -95 -395 -189 -109 -81 -188 -165 -244
-260 -54 -91 -126 -287 -126 -343 0 -34 -4 -39 -66 -75 -84 -49 -109 -82 -130
-170 -20 -86 -14 -298 11 -389 23 -84 77 -192 121 -244 40 -46 140 -101 184
-101 22 0 40 -22 127 -157 114 -177 210 -296 299 -370 123 -104 122 -127 -3
-35 -43 32 -121 104 -174 161 -105 111 -106 111 -115 21 -17 -164 -60 -323
-97 -358 -13 -12 -106 -55 -208 -96 -101 -40 -213 -88 -249 -106 -77 -38 -189
-111 -213 -138 -17 -19 -17 -19 10 -16 17 3 22 1 13 -3 -43 -22 -68 -46 -63
-59 3 -8 2 -14 -1 -14 -9 0 -57 103 -141 305 -37 88 -130 297 -207 465 -160
350 -174 370 -258 370 -27 0 -114 7 -192 15 -160 16 -497 48 -752 70 -159 14
-171 14 -205 -2 -20 -10 -46 -34 -59 -53 -37 -55 -27 -98 73 -315 48 -104 105
-235 127 -290 22 -55 56 -130 74 -167 27 -53 150 -326 249 -553 l13 -30 -48 3
c-91 7 -170 -55 -170 -133 0 -47 6 -56 115 -180 113 -129 178 -213 269 -354
99 -151 118 -167 285 -232 203 -79 265 -115 352 -202 43 -43 79 -83 79 -87 0
-5 -28 2 -62 16 -34 13 -62 23 -63 21 -16 -19 -155 -328 -155 -342 1 -51 -11
-50 447 -55 257 -3 435 -1 445 4 17 10 92 156 124 241 l19 50 3 -41 c2 -27 -6
-63 -22 -103 l-25 -61 1298 0 c1460 0 1342 -6 1516 80 200 100 406 289 451
415 6 16 2 14 -19 -7 -28 -30 -47 -36 -47 -15 0 56 -66 513 -86 597 -28 120
-109 297 -179 396 -58 81 -185 191 -273 237 -82 42 -162 68 -312 102 -125 28
-255 68 -310 95 -19 10 -53 42 -75 71 -22 29 -59 75 -82 103 -77 90 -77 88 33
282 117 205 129 229 188 368 37 85 59 123 104 171 74 82 117 154 155 262 27
78 31 101 31 198 0 163 -44 287 -138 391 -27 31 -54 76 -69 115 -65 173 -180
360 -293 479 l-78 81 445 -3 444 -3 90 -32 c100 -35 129 -37 38 -3 -123 46
-163 50 -611 50 -400 0 -425 1 -450 19 -41 29 -144 68 -287 108 -117 33 -144
37 -270 40 -113 2 -154 -1 -210 -16z m304 -155 c-2 -2 -42 -6 -89 -9 -49 -3
-70 -2 -50 3 36 8 147 13 139 6z m74 -13 c-7 -2 -21 -2 -30 0 -10 3 -4 5 12 5
17 0 24 -2 18 -5z m-260 -10 c-7 -2 -19 -2 -25 0 -7 3 -2 5 12 5 14 0 19 -2
13 -5z m304 1 c-3 -3 -12 -4 -19 -1 -8 3 -5 6 6 6 11 1 17 -2 13 -5z m-375
-19 c-18 -8 -61 -40 -95 -72 -45 -42 -51 -46 -22 -14 49 54 113 101 134 101 9
-1 1 -7 -17 -15z m598 -38 c67 -33 104 -60 176 -132 102 -101 160 -190 210
-325 49 -133 49 -135 11 -158 l-33 -19 -22 31 c-11 17 -47 88 -80 158 -95 201
-207 347 -328 426 -39 26 -79 53 -90 60 -16 11 -13 12 26 7 25 -3 83 -25 130
-48z m-750 -101 c0 -2 -8 -10 -17 -17 -16 -13 -17 -12 -4 4 13 16 21 21 21 13z
m-40 -56 c-6 -11 -13 -20 -16 -20 -2 0 0 9 6 20 6 11 13 20 16 20 2 0 0 -9 -6
-20z m-79 -147 c-12 -20 -14 -14 -5 12 4 9 9 14 11 11 3 -2 0 -13 -6 -23z
m-56 -273 c3 -6 -1 -7 -9 -4 -18 7 -21 14 -7 14 6 0 13 -4 16 -10z m1275 -54
c0 -15 -182 -97 -213 -95 -7 0 15 10 48 22 33 13 80 34 105 49 44 26 60 32 60
24z m-1100 -26 c8 -5 11 -10 5 -10 -5 0 -17 5 -25 10 -8 5 -10 10 -5 10 6 0
17 -5 25 -10z m137 -46 c-3 -3 -12 -4 -19 -1 -8 3 -5 6 6 6 11 1 17 -2 13 -5z
m-826 -31 c13 -16 12 -17 -3 -4 -17 13 -22 21 -14 21 2 0 10 -8 17 -17z m912
10 c-7 -2 -19 -2 -25 0 -7 3 -2 5 12 5 14 0 19 -2 13 -5z m60 -10 c-7 -2 -19
-2 -25 0 -7 3 -2 5 12 5 14 0 19 -2 13 -5z m567 -3 c-14 -4 -38 -8 -55 -8 -29
1 -29 1 5 8 50 11 83 11 50 0z m-502 -7 c-10 -2 -26 -2 -35 0 -10 3 -2 5 17 5
19 0 27 -2 18 -5z m95 -10 c-13 -2 -35 -2 -50 0 -16 2 -5 4 22 4 28 0 40 -2
28 -4z m295 0 c-16 -2 -40 -2 -55 0 -16 2 -3 4 27 4 30 0 43 -2 28 -4z m-130
-10 c-27 -2 -69 -2 -95 0 -27 2 -5 3 47 3 52 0 74 -1 48 -3z m571 -79 c30 -12
43 -25 55 -54 50 -125 15 -266 -96 -386 -28 -30 -60 -51 -108 -70 l-68 -26
-39 18 c-59 29 -75 70 -71 179 4 76 9 100 36 157 57 117 148 196 229 198 13 0
40 -7 62 -16z m-1053 -50 c110 -57 219 -200 231 -302 8 -71 -23 -137 -74 -159
-87 -37 -243 23 -316 122 -98 132 -114 297 -33 346 47 29 130 26 192 -7z
m-639 -336 c-2 -18 -4 -6 -4 27 0 33 2 48 4 33 2 -15 2 -42 0 -60z m-47 -213
c-7 -8 -17 -15 -23 -15 -6 0 -2 7 9 15 25 19 30 19 14 0z m1619 -186 c-60
-145 -152 -306 -222 -384 -60 -68 -159 -140 -235 -171 -114 -47 -257 -24 -328
51 -40 44 -107 131 -145 193 -36 56 -14 35 26 -25 68 -102 144 -190 178 -204
18 -8 69 -14 117 -14 75 0 93 4 150 31 36 17 84 48 108 69 74 65 171 226 246
408 48 117 65 147 80 141 6 -2 25 4 41 15 17 10 31 17 32 16 2 -1 -20 -57 -48
-126z m-3902 25 c-3 -3 -12 -4 -19 -1 -8 3 -5 6 6 6 11 1 17 -2 13 -5z m3150
0 c-3 -3 -12 -4 -19 -1 -8 3 -5 6 6 6 11 1 17 -2 13 -5z m-2621 -44 c241 -22
447 -40 456 -40 9 0 20 -10 24 -22 3 -13 33 -79 64 -148 32 -69 148 -325 258
-570 110 -245 239 -529 286 -632 47 -103 86 -191 86 -196 0 -5 -51 -10 -112
-11 -130 -2 -410 -24 -578 -46 -63 -9 -132 -18 -152 -20 -45 -6 -58 10 -125
152 -25 54 -63 135 -84 181 -22 46 -39 85 -39 87 0 4 -40 87 -217 455 -231
479 -304 656 -312 760 l-6 75 -35 6 -35 6 41 2 c22 0 238 -17 480 -39z m2681
34 c-3 -3 -12 -4 -19 -1 -8 3 -5 6 6 6 11 1 17 -2 13 -5z m-328 -151 c12 -24
19 -43 16 -43 -5 0 -45 75 -45 86 0 11 6 2 29 -43z m56 -103 c9 -16 13 -30 11
-30 -3 0 -12 14 -21 30 -9 17 -13 30 -11 30 3 0 12 -13 21 -30z m-2795 -95 c0
-5 -5 -3 -10 5 -5 8 -10 20 -10 25 0 6 5 3 10 -5 5 -8 10 -19 10 -25z m69
-150 c0 -5 -6 1 -14 15 -8 14 -14 30 -14 35 0 6 6 -1 14 -15 8 -14 14 -29 14
-35z m110 -240 c0 -5 -8 6 -19 25 -11 19 -19 40 -19 45 0 6 8 -6 19 -25 11
-19 19 -39 19 -45z m3428 -79 c25 -39 81 -129 124 -200 l79 -130 2 -85 c8
-310 -55 -516 -294 -956 -78 -142 -180 -315 -187 -315 -8 1 -195 243 -304 393
-49 67 -137 187 -196 267 -103 139 -147 201 -276 390 -31 47 -66 94 -75 105
-18 19 -17 26 36 210 30 105 59 220 66 258 9 54 14 66 27 63 9 -3 52 -14 95
-26 44 -12 139 -51 210 -86 145 -71 207 -87 278 -74 74 14 121 44 178 112 30
35 73 84 97 109 61 63 81 58 140 -35z m-3389 -11 c-3 -3 -9 2 -12 12 -6 14 -5
15 5 6 7 -7 10 -15 7 -18z m41 -90 c0 -5 -6 1 -14 15 -8 14 -14 30 -14 35 0 6
6 -1 14 -15 8 -14 14 -29 14 -35z m21 -50 c0 -5 -5 -3 -10 5 -5 8 -10 20 -10
25 0 6 5 3 10 -5 5 -8 10 -19 10 -25z m1421 -11 c-35 -8 -66 -12 -69 -10 -5 6
76 24 108 24 14 0 -4 -6 -39 -14z m-1304 -238 c35 -76 62 -141 60 -143 -3 -2
-26 45 -52 104 -26 60 -63 138 -81 175 -19 37 -34 71 -34 75 1 13 40 -63 107
-211z m1243 174 c-8 -5 -19 -10 -25 -10 -5 0 -3 5 5 10 8 5 20 10 25 10 6 0 3
-5 -5 -10z m2398 -37 c-10 -2 -26 -2 -35 0 -10 3 -2 5 17 5 19 0 27 -2 18 -5z
m110 -10 c-10 -2 -26 -2 -35 0 -10 3 -2 5 17 5 19 0 27 -2 18 -5z m69 -9 c-3
-3 -12 -4 -19 -1 -8 3 -5 6 6 6 11 1 17 -2 13 -5z m40 -10 c-3 -3 -12 -4 -19
-1 -8 3 -5 6 6 6 11 1 17 -2 13 -5z m114 -44 c33 0 65 -38 133 -156 51 -89 52
-94 32 -94 -8 0 -31 24 -52 53 -20 28 -64 80 -97 115 -33 34 -57 65 -54 69 4
3 1 13 -5 22 -10 13 -10 14 2 4 8 -7 26 -13 41 -13z m-3882 -270 c11 -24 11
-24 -3 -6 -9 11 -16 24 -16 30 0 12 5 7 19 -24z m3488 -7 c-3 -10 -5 -4 -5 12
0 17 2 24 5 18 2 -7 2 -21 0 -30z m726 -126 c53 -109 76 -231 88 -473 9 -170
9 -206 -4 -229 -14 -27 -14 -27 -27 36 -7 35 -16 111 -20 169 -9 130 -62 357
-138 600 l-21 65 42 -46 c23 -25 59 -80 80 -122z m-736 46 c-3 -10 -5 -4 -5
12 0 17 2 24 5 18 2 -7 2 -21 0 -30z m631 2 c-3 -3 -9 2 -12 12 -6 14 -5 15 5
6 7 -7 10 -15 7 -18z m-4029 -90 c0 -5 -11 10 -24 35 -13 25 -24 50 -24 55 0
6 11 -10 24 -35 13 -25 24 -49 24 -55z m3388 23 c-3 -7 -5 -2 -5 12 0 14 2 19
5 13 2 -7 2 -19 0 -25z m-2221 -25 c-8 -8 -36 10 -36 23 0 11 4 10 20 -3 11
-9 18 -18 16 -20z m2211 -35 c-3 -7 -5 -2 -5 12 0 14 2 19 5 13 2 -7 2 -19 0
-25z m-2239 -194 c-13 -13 -185 -40 -194 -31 -3 2 37 10 87 16 51 7 96 14 101
17 4 3 9 53 10 112 l2 107 3 -104 c3 -76 0 -108 -9 -117z m53 199 c13 -16 12
-17 -3 -4 -10 7 -18 15 -18 17 0 8 8 3 21 -13z m-1132 -98 c0 -5 -11 10 -24
35 -13 25 -24 50 -24 55 0 6 11 -10 24 -35 13 -25 24 -49 24 -55z m4002 56
c16 -16 29 -38 29 -48 -1 -11 -6 -7 -14 13 -16 37 -28 45 -76 55 l-35 7 33 1
c25 1 41 -7 63 -28z m-694 -13 c-3 -7 -5 -2 -5 12 0 14 2 19 5 13 2 -7 2 -19
0 -25z m-2107 -13 c13 -14 21 -25 18 -25 -2 0 -15 11 -28 25 -13 14 -21 25
-18 25 2 0 15 -11 28 -25z m2706 -182 c-14 -93 -33 -144 -171 -468 -42 -99
-95 -224 -117 -278 -22 -54 -42 -96 -45 -94 -2 2 6 26 17 52 11 27 32 100 45
162 29 140 70 267 141 440 30 73 63 172 74 220 11 48 30 107 43 131 l22 43 3
-59 c2 -33 -4 -100 -12 -149z m-3053 170 c-13 -2 -35 -2 -50 0 -16 2 -5 4 22
4 28 0 40 -2 28 -4z m2444 -15 c-3 -8 -6 -5 -6 6 -1 11 2 17 5 13 3 -3 4 -12
1 -19z m-2594 5 c-13 -2 -35 -2 -50 0 -16 2 -5 4 22 4 28 0 40 -2 28 -4z
m-125 -10 c-10 -2 -28 -2 -40 0 -13 2 -5 4 17 4 22 1 32 -1 23 -4z m-140 -10
c-16 -2 -40 -2 -55 0 -16 2 -3 4 27 4 30 0 43 -2 28 -4z m-145 -10 c-7 -2 -21
-2 -30 0 -10 3 -4 5 12 5 17 0 24 -2 18 -5z m2994 -15 c-3 -8 -6 -5 -6 6 -1
11 2 17 5 13 3 -3 4 -12 1 -19z m792 -178 c0 -14 -11 20 -24 75 -13 55 -24
107 -23 115 1 24 47 -162 47 -190z m-3886 183 c-13 -2 -33 -2 -45 0 -13 2 -3
4 22 4 25 0 35 -2 23 -4z m-125 -10 c-10 -2 -28 -2 -40 0 -13 2 -5 4 17 4 22
1 32 -1 23 -4z m3209 -35 c-3 -8 -6 -5 -6 6 -1 11 2 17 5 13 3 -3 4 -12 1 -19z
m-10 -40 c-3 -8 -6 -5 -6 6 -1 11 2 17 5 13 3 -3 4 -12 1 -19z m-1970 -20 c-3
-8 -6 -5 -6 6 -1 11 2 17 5 13 3 -3 4 -12 1 -19z m-434 -5 c-7 -2 -19 -2 -25
0 -7 3 -2 5 12 5 14 0 19 -2 13 -5z m2391 -27 c-3 -15 -8 -25 -11 -23 -2 3 -1
17 3 31 3 15 8 25 11 23 2 -3 1 -17 -3 -31z m-2391 -20 c112 -25 258 -83 315
-126 28 -22 52 -38 52 -37 0 2 13 41 30 87 16 47 30 78 30 69 0 -8 -14 -53
-31 -99 -16 -46 -28 -94 -25 -105 8 -31 -30 -161 -64 -220 -60 -105 -92 -131
-196 -165 -112 -36 -162 -38 -195 -9 -22 19 -23 19 -2 10 30 -15 51 -4 49 25
-1 21 -6 24 -38 24 -27 0 -38 -4 -38 -15 0 -8 -5 -15 -11 -15 -5 0 -7 5 -3 12
5 8 2 9 -9 5 -9 -3 -19 -2 -22 3 -12 19 15 47 57 59 80 24 186 80 209 112 l21
30 -23 25 c-21 22 -122 67 -217 95 -23 7 -40 14 -38 17 6 5 159 -45 201 -66
17 -8 42 -26 58 -40 23 -22 26 -31 21 -61 -9 -53 -42 -95 -101 -131 -29 -18
-53 -36 -53 -40 0 -4 19 -6 42 -4 50 3 186 91 247 160 52 60 85 129 72 153
-31 58 -154 127 -229 130 -82 2 -152 17 -226 48 -69 29 -128 29 -199 -1 -45
-18 -55 -18 -130 -7 -45 8 -92 20 -104 27 -28 18 -37 18 -30 0 10 -25 -5 -26
-24 -2 -22 28 -24 47 -6 65 17 19 514 8 610 -13z m2361 -80 c-3 -15 -8 -25
-11 -23 -2 3 -1 17 3 31 3 15 8 25 11 23 2 -3 1 -17 -3 -31z m863 2 c-3 -8 -6
-5 -6 6 -1 11 2 17 5 13 3 -3 4 -12 1 -19z m-3747 -14 c23 -9 39 -18 37 -20
-2 -3 -24 4 -48 15 -54 24 -45 27 11 5z m90 -34 c18 -12 2 -12 -25 0 -13 6
-15 9 -5 9 8 0 22 -4 30 -9z m195 -61 c28 -10 45 -18 39 -18 -14 -1 -134 40
-134 46 0 5 19 -1 95 -28z m2516 -136 c-12 -20 -14 -14 -5 12 4 9 9 14 11 11
3 -2 0 -13 -6 -23z m-25 -60 c-8 -15 -15 -25 -16 -21 0 12 23 58 27 54 3 -2
-2 -17 -11 -33z m-25 -60 c-12 -20 -14 -14 -5 12 4 9 9 14 11 11 3 -2 0 -13
-6 -23z m-30 -70 c-12 -20 -14 -14 -5 12 4 9 9 14 11 11 3 -2 0 -13 -6 -23z
m-18 -38 c-3 -9 -8 -14 -10 -11 -3 3 -2 9 2 15 9 16 15 13 8 -4z m-73 -145
c-28 -55 -52 -100 -55 -100 -3 0 17 45 45 100 28 55 52 100 55 100 3 0 -17
-45 -45 -100z"/>
<path d="M4749 6142 c-6 -31 -12 -113 -12 -182 0 -125 11 -194 50 -298 15 -41
18 -43 47 -36 59 13 137 46 189 81 28 19 63 40 77 45 31 13 95 11 138 -3 30
-10 40 -8 92 20 61 32 80 38 80 21 0 -19 76 -81 139 -112 43 -22 78 -32 110
-32 l46 -1 22 65 c29 84 29 146 -1 261 -21 83 -71 209 -83 209 -2 0 -16 -9
-31 -19 -15 -11 -77 -50 -137 -88 -109 -68 -110 -69 -150 -57 -60 18 -125 16
-174 -6 l-44 -20 -111 73 c-61 41 -139 88 -173 105 l-62 32 -12 -58z"/>
<path d="M4723 6100 c0 -25 2 -35 4 -22 2 12 2 32 0 45 -2 12 -4 2 -4 -23z"/>
<path d="M3711 8820 c-305 -43 -584 -256 -697 -533 -58 -143 -64 -208 -64
-683 l0 -424 25 0 c45 0 83 -49 146 -185 136 -295 154 -333 163 -327 5 3 6 0
2 -6 -8 -13 34 -103 46 -96 4 3 5 -1 2 -9 -3 -8 10 -48 29 -88 18 -41 39 -89
46 -106 13 -32 31 -36 31 -7 0 9 -5 12 -12 8 -8 -5 -9 -2 -5 9 3 10 2 17 -3
17 -5 0 -16 13 -24 29 -14 26 -14 29 5 37 l21 9 -21 19 c-12 11 -21 14 -21 8
0 -7 5 -12 10 -12 6 0 10 -5 10 -10 0 -7 -6 -7 -20 0 -23 12 -29 80 -7 80 6 0
4 5 -7 11 -15 9 -16 13 -5 20 10 6 11 9 2 9 -7 0 -13 5 -13 11 0 5 5 7 10 4
14 -8 7 32 -8 47 -9 9 -11 6 -7 -10 2 -12 -1 -25 -7 -28 -6 -4 -8 -3 -5 2 3 6
2 16 -3 24 -5 9 -4 20 3 29 10 12 9 14 -8 8 -20 -7 -20 -7 -1 8 19 15 19 15
-2 15 -12 0 -22 5 -22 11 0 5 5 7 10 4 6 -3 10 -1 10 4 0 6 -6 11 -14 11 -8 0
-32 17 -53 37 -21 20 -32 33 -25 29 6 -4 12 -2 12 4 0 6 5 8 10 5 6 -3 10 -1
10 4 0 6 -12 11 -26 11 -16 0 -23 4 -18 12 13 21 5 90 -13 103 -15 11 -14 14
5 33 23 23 29 38 12 27 -6 -3 -7 1 -4 10 6 14 8 14 20 -2 11 -16 9 -21 -14
-40 -15 -12 -21 -22 -14 -23 6 0 12 6 12 13 0 6 8 3 16 -8 11 -14 15 -15 14
-5 -5 35 -1 43 15 30 20 -17 19 -6 -1 15 -21 21 -29 72 -9 55 18 -15 30 23 15
47 -8 15 -9 13 -4 -9 6 -29 -1 -34 -26 -18 -9 5 -19 5 -26 -1 -8 -6 -13 -3
-17 10 -4 17 -2 18 18 11 18 -7 25 -5 29 7 5 11 2 14 -11 9 -10 -4 -14 -4 -10
0 4 4 2 13 -4 21 -9 9 -8 13 0 13 18 0 26 -4 23 -12 -1 -5 2 -8 6 -8 13 0 42
34 42 49 0 7 5 9 10 6 6 -3 10 -15 10 -26 0 -11 -4 -17 -10 -14 -5 3 -10 1
-10 -5 0 -6 -4 -9 -9 -6 -5 4 -7 -3 -4 -14 3 -11 10 -20 15 -20 6 0 8 7 4 15
-3 9 0 15 9 15 9 0 15 10 15 26 0 14 4 23 10 19 6 -3 10 -1 10 5 0 7 -6 10
-14 7 -20 -8 -47 34 -35 56 7 12 4 19 -13 29 -23 12 -42 18 -65 20 -22 2 11
38 36 38 20 0 22 2 11 15 -11 13 -10 14 6 8 15 -5 17 -4 8 8 -6 8 -10 22 -9
32 2 9 -1 15 -6 11 -5 -3 -9 -13 -9 -22 0 -23 -17 -48 -26 -39 -4 3 -1 14 6
22 11 13 11 16 -1 13 -8 -2 -18 -7 -22 -13 -5 -5 -5 5 -2 23 5 23 3 32 -5 30
-7 -2 -15 3 -18 11 -2 8 0 11 6 7 6 -3 12 -1 14 6 2 6 10 8 17 4 7 -5 10 -14
7 -22 -3 -8 0 -11 10 -7 13 5 13 8 -1 23 -14 16 -14 18 1 30 13 12 17 11 25
-1 7 -10 9 -4 6 21 -3 21 -9 34 -16 32 -8 -1 -9 2 -5 10 16 24 12 37 -9 35
-12 0 -25 -6 -29 -12 -5 -6 -8 -4 -9 5 -6 48 -5 69 2 64 15 -9 10 13 -6 26 -8
7 -12 17 -8 23 4 6 1 7 -6 3 -7 -5 -10 -13 -8 -20 3 -7 -4 -13 -14 -13 -17 -2
-17 0 -5 13 8 8 13 28 12 49 -4 39 0 41 28 20 19 -15 19 -15 -2 -15 -12 0 -22
-5 -22 -10 0 -6 8 -10 18 -8 9 2 16 -2 15 -9 -3 -13 35 -29 45 -18 4 3 0 10
-8 15 -11 7 -6 10 18 10 30 0 42 -12 23 -24 -13 -8 -7 -36 10 -47 8 -5 10 -9
6 -9 -4 0 -4 -8 1 -17 10 -18 42 -27 42 -12 0 5 -3 9 -7 9 -8 0 -33 47 -33 62
0 4 10 13 23 19 21 12 21 11 7 -6 -14 -17 -13 -18 12 -13 15 3 29 0 32 -6 2
-6 5 -4 5 4 1 8 -9 22 -21 30 -23 15 -28 17 -58 19 -12 1 -12 3 1 16 12 12 21
13 40 6 13 -5 18 -10 11 -10 -19 -1 11 -31 31 -31 9 0 13 -9 11 -26 -2 -22 0
-23 13 -12 13 10 17 10 20 1 3 -7 9 -13 14 -13 4 0 6 7 3 15 -4 8 -15 15 -25
15 -12 0 -16 5 -13 15 4 8 1 15 -5 15 -6 0 -11 7 -11 15 0 8 -4 15 -8 15 -5 0
-14 12 -21 28 l-11 27 21 -25 c12 -14 26 -24 32 -22 5 2 7 -4 4 -13 -4 -9 -1
-15 7 -15 8 0 16 7 20 15 3 8 11 15 18 15 10 0 10 -2 0 -9 -11 -7 -11 -9 2
-14 8 -3 16 -1 18 5 2 6 19 12 37 13 26 1 32 -2 28 -15 -2 -9 2 -17 9 -17 7 0
15 11 19 24 4 19 12 23 45 23 31 0 40 -4 40 -17 0 -15 2 -15 9 -4 6 10 1 22
-16 39 l-25 25 26 16 c14 9 26 21 26 27 0 7 6 15 13 17 7 3 4 6 -7 6 -14 1
-17 6 -12 24 3 12 6 25 6 30 0 4 5 7 11 7 5 0 7 -4 4 -10 -10 -16 22 -12 39 5
13 13 13 20 3 35 -6 11 -15 20 -19 20 -12 0 -10 -7 5 -22 12 -11 12 -16 -1
-28 -14 -13 -15 -12 -9 2 3 9 1 18 -5 20 -8 3 -9 11 -3 24 4 10 9 24 9 29 1 6
13 9 29 9 28 -1 37 10 15 19 -10 4 -10 6 0 6 6 1 12 5 12 11 0 5 -6 7 -13 4
-8 -3 -14 2 -14 10 0 8 5 12 10 9 6 -4 8 0 4 10 -7 18 28 44 37 28 8 -13 -4
-20 -22 -14 -13 5 -14 3 -5 -7 13 -14 28 -7 43 20 9 17 7 18 -27 14 -20 -3
-43 -10 -50 -16 -9 -7 -13 -7 -13 1 0 6 5 11 11 11 7 0 9 10 7 25 -4 17 -1 25
9 25 8 0 11 5 8 10 -6 9 8 14 28 11 5 -1 6 7 2 18 -5 16 -2 19 13 16 10 -2 25
1 33 7 11 8 11 9 -3 5 -11 -4 -18 2 -23 20 -3 14 -4 28 0 31 3 3 5 -2 5 -12 0
-9 4 -15 9 -12 4 3 6 18 4 33 -3 19 -2 24 5 15 5 -7 16 -10 26 -6 14 5 15 9 4
15 -8 6 -9 9 -1 9 6 0 9 9 6 23 -4 21 -4 21 11 3 9 -11 19 -17 22 -14 3 4 -6
17 -20 29 -14 12 -26 30 -26 38 0 14 2 14 9 2 8 -12 12 -12 25 -2 26 21 19 30
-20 26 -19 -3 -33 -1 -30 4 3 5 18 9 33 9 15 0 29 5 31 11 3 9 8 8 20 -1 13
-11 14 -10 4 9 -7 12 -15 23 -19 25 -5 3 -2 3 5 2 6 -2 12 1 12 7 0 6 4 7 10
4 6 -3 9 4 8 18 -2 18 -7 23 -20 19 -10 -2 -16 -8 -13 -12 11 -17 -16 -21 -37
-6 -21 15 -15 21 18 17 18 -2 37 50 23 63 -7 7 -10 7 -6 1 7 -13 -49 -19 -57
-7 -3 5 6 7 19 4 28 -5 29 -4 14 34 -10 28 -10 28 10 9 19 -16 21 -16 22 -2 2
30 4 35 12 43 4 4 7 0 7 -9 0 -9 6 -17 13 -17 9 0 9 -2 -1 -9 -11 -7 -11 -9 2
-14 22 -9 31 12 13 30 -14 15 -13 18 9 35 13 11 24 25 24 33 0 7 3 15 8 18 4
2 1 2 -5 1 -7 -2 -13 1 -13 6 0 5 -7 7 -14 4 -13 -5 -13 -2 -3 19 6 14 16 25
21 24 16 -3 17 20 1 27 -9 3 -13 2 -10 -4 8 -13 -8 -13 -20 -1 -6 5 -23 11
-40 14 -16 2 68 5 188 6 l218 1 -66 -66 c-143 -143 -218 -282 -265 -491 -6
-28 -18 -54 -27 -57 -11 -5 -13 -2 -9 9 3 10 2 13 -5 10 -6 -4 -8 -12 -6 -19
3 -6 -15 -25 -40 -41 -58 -39 -88 -91 -114 -200 -18 -78 -21 -108 -16 -220 7
-158 31 -256 89 -368 50 -97 146 -198 228 -239 47 -25 58 -36 97 -108 38 -70
43 -87 43 -144 0 -87 -17 -205 -41 -280 l-19 -61 -117 -49 c-351 -147 -398
-170 -515 -254 -77 -54 -55 -46 38 15 86 56 224 122 467 223 73 31 132 61 138
72 23 42 50 180 56 281 l6 108 -44 88 c-42 83 -47 89 -106 120 -118 62 -221
194 -268 343 -34 109 -51 284 -37 390 23 170 55 233 147 289 l59 35 14 70 c37
186 107 318 242 456 l95 98 -155 0 c-85 0 -211 2 -280 4 -69 3 -154 1 -189 -4z
m72 -17 c-7 -2 -21 -2 -30 0 -10 3 -4 5 12 5 17 0 24 -2 18 -5z m44 1 c-3 -3
-12 -4 -19 -1 -8 3 -5 6 6 6 11 1 17 -2 13 -5z m137 -103 c4 -5 -3 -7 -14 -4
-23 6 -26 13 -6 13 8 0 17 -4 20 -9z m-50 -26 c3 -8 1 -15 -4 -15 -6 0 -10 7
-10 15 0 8 2 15 4 15 2 0 6 -7 10 -15z m41 5 c3 -5 -1 -10 -10 -10 -9 0 -13 5
-10 10 3 6 8 10 10 10 2 0 7 -4 10 -10z m-99 -242 c-18 -26 -22 -17 -5 14 6
11 13 17 16 15 3 -3 -2 -16 -11 -29z m-21 -136 c-3 -3 -11 0 -18 7 -9 10 -8
11 6 5 10 -3 15 -9 12 -12z m-140 -302 c-3 -5 -12 -10 -18 -10 -7 0 -6 4 3 10
19 12 23 12 15 0z m-25 -36 c0 -8 -19 -13 -24 -6 -3 5 1 9 9 9 8 0 15 -2 15
-3z m-703 -41 c-3 -10 -5 -4 -5 12 0 17 2 24 5 18 2 -7 2 -21 0 -30z m713 7
c0 -5 -5 -10 -11 -10 -5 0 -7 5 -4 10 3 6 8 10 11 10 2 0 4 -4 4 -10z m-713
-92 c-2 -13 -4 -3 -4 22 0 25 2 35 4 23 2 -13 2 -33 0 -45z m633 -18 c0 -19
-18 -19 -23 -1 -3 14 -1 18 9 14 8 -3 14 -9 14 -13z m60 -12 c0 -13 -23 -5
-28 10 -2 7 2 10 12 6 9 -3 16 -11 16 -16z m-693 -30 c-3 -7 -5 -2 -5 12 0 14
2 19 5 13 2 -7 2 -19 0 -25z m443 12 c0 -5 -2 -10 -4 -10 -3 0 -8 5 -11 10 -3
6 -1 10 4 10 6 0 11 -4 11 -10z m130 -44 c0 -8 6 -16 13 -19 6 -3 2 -4 -10 -4
-14 1 -21 7 -20 19 1 21 17 25 17 4z m-350 0 c0 -2 -7 -7 -16 -10 -8 -3 -12
-2 -9 4 6 10 25 14 25 6z m273 -15 c9 -10 6 -10 -13 -3 -14 5 -33 8 -42 7 -10
-2 -21 1 -24 6 -8 14 65 4 79 -10z m44 -3 c-3 -8 -6 -5 -6 6 -1 11 2 17 5 13
3 -3 4 -12 1 -19z m-540 -35 c-3 -10 -5 -4 -5 12 0 17 2 24 5 18 2 -7 2 -21 0
-30z m169 -5 c4 -7 3 -8 -4 -4 -7 4 -12 2 -12 -3 0 -6 -5 -11 -11 -11 -8 0 -8
5 1 15 15 18 17 18 26 3z m-163 -255 c-1 -140 2 -222 9 -230 8 -10 6 -13 -6
-13 -14 0 -16 24 -16 223 0 185 3 237 14 237 1 0 0 -98 -1 -217z m115 209 c8
8 9 5 6 -9 -4 -14 -12 -19 -28 -16 -13 3 -23 11 -23 18 0 10 5 11 17 5 11 -6
21 -5 28 2z m52 -36 c0 -2 -7 -7 -16 -10 -8 -3 -12 -2 -9 4 6 10 25 14 25 6z
m35 -6 c3 -5 1 -10 -4 -10 -6 0 -11 5 -11 10 0 6 2 10 4 10 3 0 8 -4 11 -10z
m-78 -25 c-4 -8 -12 -15 -19 -14 -10 0 -10 2 0 6 6 2 12 12 12 21 0 8 3 13 6
9 4 -3 4 -13 1 -22z m59 4 c3 -6 -3 -21 -15 -33 -20 -19 -21 -19 -15 -2 6 15
4 17 -6 11 -8 -5 -11 -4 -6 3 4 6 13 9 21 5 8 -3 15 -1 15 5 0 6 -6 13 -12 15
-10 4 -10 6 -1 6 6 1 15 -4 19 -10z m-91 -59 c3 -5 1 -10 -4 -10 -6 0 -11 5
-11 10 0 6 2 10 4 10 3 0 8 -4 11 -10z m65 -10 c0 -5 -2 -10 -4 -10 -3 0 -8 5
-11 10 -3 6 -1 10 4 10 6 0 11 -4 11 -10z m85 0 c3 -6 -1 -7 -9 -4 -18 7 -21
14 -7 14 6 0 13 -4 16 -10z m-213 -17 c-6 -3 -9 -10 -6 -16 4 -7 1 -7 -7 1
-12 11 -12 14 1 22 8 5 17 6 20 3 3 -3 -1 -8 -8 -10z m243 -13 c3 -5 -11 -7
-30 -6 -40 4 -52 -6 -30 -24 12 -10 16 -9 21 4 3 9 10 16 15 16 17 0 9 -17
-15 -30 -21 -11 -27 -10 -41 4 -16 15 -15 18 6 34 21 18 64 19 74 2z m-125
-49 c0 -5 -9 -7 -20 -4 -11 3 -20 7 -20 9 0 2 9 4 20 4 11 0 20 -4 20 -9z m36
-21 c0 -28 -13 -25 -18 4 -3 15 -1 23 6 20 7 -3 12 -13 12 -24z m-139 14 c-3
-3 -12 -4 -19 -1 -8 3 -5 6 6 6 11 1 17 -2 13 -5z m40 -16 c-3 -8 -6 -5 -6 6
-1 11 2 17 5 13 3 -3 4 -12 1 -19z m-50 -42 c-13 -14 -16 -14 -21 0 -3 8 -2
12 3 9 5 -3 13 0 16 6 4 5 9 8 12 5 3 -3 -1 -12 -10 -20z m123 20 c0 -3 -4 -8
-10 -11 -5 -3 -10 -1 -10 4 0 6 5 11 10 11 6 0 10 -2 10 -4z m46 -28 c5 -7 3
-8 -6 -3 -10 6 -12 4 -6 -11 5 -14 4 -16 -5 -7 -6 6 -8 16 -5 22 9 14 13 14
22 -1z m-74 -15 c-6 -2 -9 -10 -6 -15 4 -7 2 -8 -4 -4 -7 4 -12 2 -12 -5 0 -7
-2 -10 -5 -7 -10 10 7 38 24 37 10 0 11 -2 3 -6z m-98 -18 c-7 -16 -24 -21
-24 -6 0 8 7 13 27 20 1 1 0 -6 -3 -14z m204 -13 c2 -7 -1 -12 -8 -12 -6 0 -9
4 -6 9 4 5 1 12 -4 14 -6 3 -5 4 2 3 6 -1 14 -8 16 -14z m-160 -10 c12 9 11 6
-2 -10 -24 -28 -36 -28 -28 0 3 13 7 17 10 10 3 -10 7 -10 20 0z m210 -70 c5
-16 -10 -15 -28 1 -12 10 -12 9 -2 -5 10 -12 10 -18 1 -24 -7 -4 -9 -3 -5 4 3
6 2 13 -4 17 -5 3 -10 -3 -10 -14 0 -29 25 -26 49 5 24 30 25 29 10 -13 -8
-25 -15 -30 -32 -25 -12 2 -27 9 -33 13 -6 5 -15 5 -19 1 -4 -4 0 7 10 25 19
32 54 41 63 15z m-234 -11 c3 -5 -6 -8 -20 -8 -19 0 -22 2 -13 8 18 11 26 11
33 0z m266 -35 c0 -3 -4 -8 -10 -11 -5 -3 -10 -1 -10 4 0 6 5 11 10 11 6 0 10
-2 10 -4z m-105 -206 c3 -6 -1 -7 -9 -4 -18 7 -21 14 -7 14 6 0 13 -4 16 -10z"/>
<path d="M6825 8699 c38 -22 76 -46 84 -52 12 -9 13 -9 7 0 -8 14 -137 93
-151 93 -6 0 22 -18 60 -41z"/>
<path d="M3950 8641 c0 -5 7 -12 16 -15 14 -5 15 -4 4 9 -14 17 -20 19 -20 6z"/>
<path d="M6986 8584 c33 -32 77 -79 96 -104 77 -96 145 -254 168 -387 6 -37 8
-41 9 -17 2 49 -46 200 -90 285 -46 88 -132 195 -199 247 -37 29 -35 25 16
-24z"/>
<path d="M3916 8568 c3 -5 10 -6 15 -3 13 9 11 12 -6 12 -8 0 -12 -4 -9 -9z"/>
<path d="M3909 8528 c-9 -17 -8 -18 10 -9 26 15 34 28 15 28 -8 0 -20 -9 -25
-19z"/>
<path d="M3921 8393 c-7 -8 -11 -16 -8 -19 2 -2 10 2 17 11 17 20 9 27 -9 8z"/>
<path d="M3880 8360 c0 -5 5 -10 10 -10 6 0 10 5 10 10 0 6 -4 10 -10 10 -5 0
-10 -4 -10 -10z"/>
<path d="M3828 8243 c7 -3 16 -2 19 1 4 3 -2 6 -13 5 -11 0 -14 -3 -6 -6z"/>
<path d="M3820 8219 c0 -5 5 -7 10 -4 6 3 10 8 10 11 0 2 -4 4 -10 4 -5 0 -10
-5 -10 -11z"/>
<path d="M3846 8162 c-3 -5 1 -9 9 -9 8 0 12 4 9 9 -3 4 -7 8 -9 8 -2 0 -6 -4
-9 -8z"/>
<path d="M3760 8115 c1 -18 2 -18 13 -4 7 9 19 18 27 22 8 3 3 5 -12 4 -21 -1
-28 -6 -28 -22z"/>
<path d="M7265 7110 c0 -514 1 -725 2 -467 2 257 2 677 0 935 -1 257 -2 46 -2
-468z"/>
<path d="M3771 8014 c0 -11 3 -14 6 -6 3 7 2 16 -1 19 -3 4 -6 -2 -5 -13z"/>
<path d="M3717 7959 c7 -7 15 -10 18 -7 3 3 -2 9 -12 12 -14 6 -15 5 -6 -5z"/>
<path d="M3680 7850 c0 -5 4 -10 8 -10 5 0 14 -10 21 -22 7 -14 9 -16 6 -5 -3
10 -5 25 -5 33 0 8 -7 14 -15 14 -8 0 -15 -4 -15 -10z"/>
<path d="M3681 7790 c0 -8 3 -21 8 -28 7 -11 9 -10 14 3 4 9 3 13 -2 10 -5 -3
-12 3 -14 12 -3 13 -5 14 -6 3z"/>
<path d="M3645 7769 c-11 -17 1 -21 15 -4 8 9 8 15 2 15 -6 0 -14 -5 -17 -11z"/>
<path d="M3610 7699 c0 -5 5 -7 10 -4 6 3 10 8 10 11 0 2 -4 4 -10 4 -5 0 -10
-5 -10 -11z"/>
<path d="M3676 7702 c-3 -5 1 -9 9 -9 8 0 12 4 9 9 -3 4 -7 8 -9 8 -2 0 -6 -4
-9 -8z"/>
<path d="M3310 7689 c0 -5 5 -7 10 -4 6 3 10 8 10 11 0 2 -4 4 -10 4 -5 0 -10
-5 -10 -11z"/>
<path d="M3570 7690 c0 -5 5 -10 11 -10 5 0 7 5 4 10 -3 6 -8 10 -11 10 -2 0
-4 -4 -4 -10z"/>
<path d="M3480 7681 c0 -6 4 -13 10 -16 6 -3 7 1 4 9 -7 18 -14 21 -14 7z"/>
<path d="M3600 7666 c0 -8 4 -17 9 -20 5 -4 7 3 4 14 -6 23 -13 26 -13 6z"/>
<path d="M3620 7672 c0 -12 19 -26 26 -19 2 2 -2 10 -11 17 -9 8 -15 8 -15 2z"/>
<path d="M3551 7649 c-18 -14 -19 -19 -7 -19 9 0 16 4 16 9 0 5 8 11 18 13 9
2 12 6 7 10 -6 3 -21 -2 -34 -13z"/>
<path d="M3481 7634 c0 -11 3 -14 6 -6 3 7 2 16 -1 19 -3 4 -6 -2 -5 -13z"/>
<path d="M3211 7624 c9 -11 9 -18 1 -26 -18 -18 -14 -38 6 -38 14 0 15 2 2 10
-8 5 -12 10 -8 10 3 0 13 3 22 6 11 4 16 1 16 -10 0 -9 5 -16 10 -16 11 0 12
37 2 60 -4 8 -20 16 -35 17 -24 2 -27 0 -16 -13z"/>
<path d="M3310 7621 c0 -5 7 -11 15 -15 8 -3 15 -1 15 3 0 5 -7 11 -15 15 -8
3 -15 1 -15 -3z"/>
<path d="M3350 7589 c0 -5 5 -7 10 -4 6 3 10 8 10 11 0 2 -4 4 -10 4 -5 0 -10
-5 -10 -11z"/>
<path d="M3279 7562 c-1 -7 -2 -17 -3 -23 -1 -7 15 -13 34 -15 30 -3 32 -2 15
7 -11 7 -26 19 -32 27 -9 10 -14 12 -14 4z"/>
<path d="M3286 7503 c5 -5 12 -12 16 -18 4 -6 8 -2 8 8 0 9 -7 17 -17 17 -9 0
-12 -3 -7 -7z"/>
<path d="M3356 7495 c-3 -9 -11 -13 -17 -9 -8 5 -9 3 -4 -5 6 -10 11 -9 23 3
9 8 13 18 10 21 -3 3 -8 -1 -12 -10z"/>
<path d="M3320 7318 c0 -4 4 -8 9 -8 6 0 12 4 15 8 3 5 -1 9 -9 9 -8 0 -15 -4
-15 -9z"/>
<path d="M3225 7290 c-3 -5 -3 -10 2 -11 4 0 16 -2 26 -4 22 -4 22 2 -2 15
-13 7 -22 7 -26 0z"/>
<path d="M3285 7279 c-4 -6 -5 -12 -2 -15 2 -3 7 2 10 11 7 17 1 20 -8 4z"/>
<path d="M3312 7260 c0 -14 2 -19 5 -12 2 6 2 18 0 25 -3 6 -5 1 -5 -13z"/>
<path d="M3336 7025 c4 -8 8 -15 10 -15 2 0 4 7 4 15 0 8 -4 15 -10 15 -5 0
-7 -7 -4 -15z"/>
<path d="M3372 7028 c-14 -14 -16 -38 -3 -38 5 0 8 8 7 18 0 10 6 16 16 16 10
-1 15 2 12 7 -7 12 -18 11 -32 -3z"/>
<path d="M3300 6929 c0 -5 5 -7 10 -4 6 3 10 8 10 11 0 2 -4 4 -10 4 -5 0 -10
-5 -10 -11z"/>
<path d="M3269 6911 c8 -5 12 -18 8 -30 -3 -12 -2 -23 3 -26 4 -3 10 8 12 25
3 19 0 31 -10 35 -21 8 -29 6 -13 -4z"/>
<path d="M3560 6900 c-9 -6 -10 -10 -3 -10 6 0 15 5 18 10 8 12 4 12 -15 0z"/>
<path d="M3456 6867 c3 -10 9 -15 12 -12 3 3 0 11 -7 18 -10 9 -11 8 -5 -6z"/>
<path d="M3241 6857 c2 -1 13 -9 24 -17 19 -14 19 -14 6 3 -7 9 -18 17 -24 17
-6 0 -8 -1 -6 -3z"/>
<path d="M3287 6818 c-4 -12 -1 -28 5 -35 10 -12 4 -17 -14 -14 -14 2 -8 -17
6 -22 16 -6 30 30 15 39 -5 3 -6 11 -2 17 11 17 12 37 3 37 -4 0 -10 -10 -13
-22z"/>
<path d="M3322 6786 c7 -8 15 -12 17 -11 5 6 -10 25 -20 25 -5 0 -4 -6 3 -14z"/>
<path d="M3320 6749 c0 -5 5 -7 10 -4 6 3 10 8 10 11 0 2 -4 4 -10 4 -5 0 -10
-5 -10 -11z"/>
<path d="M3590 6699 c0 -5 5 -7 10 -4 6 3 10 8 10 11 0 2 -4 4 -10 4 -5 0 -10
-5 -10 -11z"/>
<path d="M3410 6600 c0 -5 5 -10 11 -10 5 0 7 5 4 10 -3 6 -8 10 -11 10 -2 0
-4 -4 -4 -10z"/>
<path d="M3405 6439 c-6 -8 -4 -10 5 -4 10 6 12 4 6 -11 -6 -15 -5 -17 5 -6 9
9 10 15 2 23 -8 8 -13 7 -18 -2z"/>
<path d="M3436 6307 c3 -10 9 -15 12 -12 3 3 0 11 -7 18 -10 9 -11 8 -5 -6z"/>
<path d="M7261 6114 c0 -11 3 -14 6 -6 3 7 2 16 -1 19 -3 4 -6 -2 -5 -13z"/>
<path d="M7274 5535 c0 -77 2 -107 3 -67 2 40 2 103 0 140 -2 37 -3 4 -3 -73z"/>
<path d="M7256 5324 c-4 -37 -5 -69 -2 -71 2 -3 7 25 11 62 4 36 5 68 3 71 -3
2 -8 -25 -12 -62z"/>
<path d="M7231 5183 c-7 -32 -32 -106 -55 -165 -23 -59 -39 -105 -35 -102 22
13 119 307 107 320 -3 2 -10 -22 -17 -53z"/>
<path d="M5821 3895 c-233 -51 -351 -206 -351 -461 l0 -74 -116 0 -117 0 7
-52 c3 -29 6 -102 6 -161 l0 -108 105 3 105 3 0 -547 0 -548 195 0 195 0 0
550 0 550 78 -6 c44 -4 118 -3 165 1 l87 7 0 154 0 154 -166 0 -167 0 7 68 c4
37 15 83 24 102 34 69 146 103 275 82 l57 -9 0 147 0 147 -52 7 c-88 10 -269
5 -337 -9z"/>
<path d="M3252 3858 c-10 -13 -82 -201 -300 -783 -66 -176 -188 -499 -271
-718 -83 -218 -151 -400 -151 -402 0 -10 406 -5 416 5 5 5 39 100 74 210 l65
199 392 1 391 0 16 -42 c9 -24 42 -117 74 -208 l57 -165 218 -3 c119 -1 217
-1 217 2 0 2 -72 185 -161 407 -450 1128 -593 1485 -602 1497 -7 9 -63 12
-217 12 -154 0 -210 -3 -218 -12z m252 -475 c16 -49 77 -224 137 -390 60 -167
109 -305 109 -309 0 -3 -124 -4 -275 -2 -151 1 -275 6 -275 10 0 3 47 141 104
305 57 164 116 337 132 385 16 48 31 88 34 88 3 0 19 -39 34 -87z"/>
<path d="M4630 2910 l0 -960 202 0 201 0 -6 377 c-4 207 -7 639 -7 960 l0 583
-195 0 -195 0 0 -960z"/>
<path d="M7504 3363 l-141 -4 -28 -92 c-55 -185 -278 -862 -286 -872 -6 -5 -9
-2 -9 8 0 9 -53 151 -119 314 -104 262 -200 517 -228 608 l-10 30 -206 3 -206
2 30 -72 c17 -40 145 -355 285 -699 l254 -626 -16 -54 c-41 -142 -98 -185
-245 -183 l-86 1 -7 -81 c-11 -142 -8 -203 10 -210 9 -3 78 -6 154 -6 161 0
231 17 326 78 68 44 142 135 185 227 26 56 388 1014 449 1190 16 44 60 161 99
260 39 99 71 181 71 183 0 1 -30 1 -67 0 -38 -1 -131 -4 -209 -5z"/>
</g>
</svg>
